# xmcd
#
# Track frame offsets:
#  150
#  13282
#  37950
#  53599
#  75062
#  95627
#  117208
#  136553
#  154003
#  171105
#  180807
#  191334
#  210492
#
# Disc length: 3006 seconds
#
# Revision: 0
# Processed by: cddbd v1.5.2PL0 Copyright (c) Steve Scherf et al.
# Submitted via: AltoMP3_Maker 3.0
#
DISCID=8c0bbc0d
DTITLE=Cindy Cashdollar - Waltz for Abilene
DYEAR=1900
DGENRE=
TTITLE0=Foggy Mt. Rock (w Albert Lee)
TTITLE1=That Ain't No Way for Me to Get Along (w Rory Block)
TTITLE2=Sey Seychelles (w Sonny Landreth)
TTITLE3=Skylark (w Jake Langley)
TTITLE4=Peacock Alley (w Derek O'Brien, Ray Benson, Mike Flanigin)
TTITLE5=How Many More Years (w Omar Kent Dykes)
TTITLE6=Salvation (w Marcia Ball)
TTITLE7=In the Heart of This Town (w Arlen Roth)
TTITLE8=Ring Them Bells (w Amy Helm)
TTITLE9=Memphis Blues (w Albert Lee)
TTITLE10=Oh Susannah
TTITLE11=This Train (w John Sebastian)
TTITLE12=Waltz for Abilene (w Larry Campbell)
EXTD=
EXTT0=
EXTT1=
EXTT2=
EXTT3=
EXTT4=
EXTT5=
EXTT6=
EXTT7=
EXTT8=
EXTT9=
EXTT10=
EXTT11=
EXTT12=
PLAYORDER=
